<svg xmlns="http://www.w3.org/2000/svg" font-family="Helvetica, Arial, sans-serif" viewBox="0 0 780 430"><defs><style>.wire{stroke:#334155;stroke-width:2;fill:none}.gate{stroke:#1f2937;stroke-width:2.5;fill:#f8fafc}.dot{fill:#334155}.lbl{fill:#111827;font-size:15px;font-weight:700}.eq,.sub{fill:#6b7280}.eq{font-size:12px;font-family:Menlo,Consolas,monospace}.sub{font-size:12.5px}</style></defs><rect width="778" height="428" x="1" y="1" fill="#fff" stroke="#d1d5db" rx="10"/><text x="24" y="32" style="fill:#111827;font-size:17px;font-weight:700">decoder_2to4 — gate-level structure</text><text x="24" y="52" class="sub">Active-low outputs: exactly one output is 0 for each select value</text><text x="40" y="65" class="lbl">A1</text><path d="M70 60h120v288" class="wire"/><text x="40" y="95" class="lbl">A0</text><path d="M70 90h80v242" class="wire"/><circle cx="150" cy="122" r="3.5" class="dot"/><circle cx="150" cy="160" r="3.5" class="dot"/><circle cx="150" cy="262" r="3.5" class="dot"/><circle cx="190" cy="138" r="3.5" class="dot"/><circle cx="190" cy="208" r="3.5" class="dot"/><circle cx="190" cy="230" r="3.5" class="dot"/><path d="M150 160h80" class="wire"/><path d="m230 145 34 15-34 15Z" class="gate"/><circle cx="269" cy="160" r="4.5" class="gate"/><text x="228" y="138" class="eq">A0&apos;</text><path d="M273.5 160H330v32h158M190 230h40" class="wire"/><path d="m230 215 34 15-34 15Z" class="gate"/><circle cx="269" cy="230" r="4.5" class="gate"/><text x="228" y="208" class="eq">A1&apos;</text><path d="M273.5 230H360v48h128M150 122h338M190 138h298M190 208h298M150 262h338M150 332h338M190 348h298" class="wire"/><path d="M480 108q14 22 0 44 35 0 70-22-35-22-70-22Z" class="gate"/><path d="M550 130h90" class="wire"/><text x="650" y="135" class="lbl">X0</text><text x="480" y="100" class="eq">X0 = A0 + A1</text><path d="M480 178q14 22 0 44 35 0 70-22-35-22-70-22Z" class="gate"/><path d="M550 200h90" class="wire"/><text x="650" y="205" class="lbl">X1</text><text x="480" y="170" class="eq">X1 = A0&apos; + A1</text><path d="M480 248q14 22 0 44 35 0 70-22-35-22-70-22Z" class="gate"/><path d="M550 270h90" class="wire"/><text x="650" y="275" class="lbl">X2</text><text x="480" y="240" class="eq">X2 = A0 + A1&apos;</text><path d="M488 318h40a22 22 0 0 1 0 44h-40Z" class="gate"/><circle cx="554.5" cy="340" r="4.5" class="gate"/><path d="M559 340h81" class="wire"/><text x="650" y="345" class="lbl">X3</text><text x="480" y="310" class="eq">X3 = (A0 · A1)&apos;</text><text x="24" y="405" class="sub">On the Basys 3, X drives active-high LEDs: the selected (low) output is the single LED that turns OFF.</text></svg>